<svg width="16" height="17" viewBox="0 0 16 17" fill="none" xmlns="http://www.w3.org/2000/svg">
<g clip-path="url(#clip0_1_430)">
<path d="M16 6.52902V13.6183C16 14.0112 15.8601 14.3475 15.5804 14.6272C15.3006 14.907 14.9643 15.0469 14.5714 15.0469H1.42857C1.03571 15.0469 0.699405 14.907 0.419643 14.6272C0.139881 14.3475 0 14.0112 0 13.6183V6.52902C0.261905 6.82068 0.5625 7.07961 0.901786 7.3058C3.05655 8.77009 4.53571 9.79687 5.33929 10.3862C5.67857 10.6362 5.95387 10.8311 6.16518 10.971C6.37649 11.1109 6.65774 11.2537 7.00893 11.3996C7.36012 11.5454 7.6875 11.6183 7.99107 11.6183H8H8.00893C8.3125 11.6183 8.63988 11.5454 8.99107 11.3996C9.34226 11.2537 9.62351 11.1109 9.83482 10.971C10.0461 10.8311 10.3214 10.6362 10.6607 10.3862C11.6726 9.65402 13.1548 8.62723 15.1071 7.3058C15.4464 7.07366 15.744 6.81473 16 6.52902ZM16 3.90402C16 4.37426 15.8542 4.82366 15.5625 5.25223C15.2708 5.6808 14.9077 6.04687 14.4732 6.35045C12.2351 7.90402 10.8423 8.87128 10.2946 9.25223C10.2351 9.2939 10.1086 9.38467 9.91518 9.52455C9.72173 9.66443 9.56101 9.77753 9.43304 9.86384C9.30506 9.95015 9.1503 10.0469 8.96875 10.154C8.7872 10.2612 8.61607 10.3415 8.45536 10.3951C8.29464 10.4487 8.14583 10.4754 8.00893 10.4754H8H7.99107C7.85417 10.4754 7.70536 10.4487 7.54464 10.3951C7.38393 10.3415 7.2128 10.2612 7.03125 10.154C6.8497 10.0469 6.69494 9.95015 6.56696 9.86384C6.43899 9.77753 6.27827 9.66443 6.08482 9.52455C5.89137 9.38467 5.76488 9.2939 5.70536 9.25223C5.16369 8.87128 4.38393 8.32812 3.36607 7.62277C2.34821 6.91741 1.7381 6.4933 1.53571 6.35045C1.16667 6.10045 0.818452 5.7567 0.491071 5.3192C0.16369 4.8817 0 4.47545 0 4.10045C0 3.63616 0.123512 3.24926 0.370536 2.93973C0.61756 2.63021 0.970238 2.47545 1.42857 2.47545H14.5714C14.9583 2.47545 15.2932 2.61533 15.5759 2.89509C15.8586 3.17485 16 3.51116 16 3.90402Z" fill="#212529"/>
</g>
<defs>
<clipPath id="clip0_1_430">
<rect width="16" height="16" fill="white" transform="matrix(1 0 0 -1 0 16.1899)"/>
</clipPath>
</defs>
</svg>
