<svg width="16" height="17" viewBox="0 0 16 17" fill="none" xmlns="http://www.w3.org/2000/svg">
<g clip-path="url(#clip0_1_509)">
<path d="M14.631 3.83287C14.2324 4.4162 13.7506 4.91323 13.1855 5.32394C13.1915 5.40727 13.1944 5.53227 13.1944 5.69894C13.1944 6.47275 13.0814 7.24507 12.8554 8.0159C12.6293 8.78674 12.2858 9.52632 11.8248 10.2347C11.3638 10.943 10.8151 11.5695 10.1786 12.1141C9.54214 12.6588 8.7748 13.0933 7.8766 13.4177C6.97839 13.7421 6.01773 13.9043 4.99461 13.9043C3.3826 13.9043 1.9074 13.4727 0.569016 12.6097C0.777209 12.6335 1.0092 12.6454 1.26498 12.6454C2.60336 12.6454 3.79601 12.2347 4.84292 11.4132C4.21834 11.4013 3.6592 11.2094 3.16548 10.8373C2.67177 10.4653 2.33271 9.99061 2.14831 9.41323C2.34461 9.44299 2.52603 9.45787 2.69259 9.45787C2.94837 9.45787 3.20117 9.42513 3.451 9.35965C2.78479 9.22275 2.23307 8.8909 1.79587 8.36412C1.35866 7.83733 1.14006 7.22573 1.14006 6.5293V6.49358C1.54455 6.71977 1.97878 6.8418 2.44275 6.85965C2.05016 6.59775 1.73787 6.25549 1.50588 5.83287C1.2739 5.41025 1.1579 4.95192 1.1579 4.45787C1.1579 3.93406 1.28877 3.44894 1.5505 3.00251C2.27025 3.88942 3.14615 4.59924 4.17819 5.13198C5.21024 5.66471 6.31515 5.96084 7.49293 6.02037C7.44534 5.79418 7.42154 5.57394 7.42154 5.35965C7.42154 4.56203 7.70261 3.88197 8.26473 3.31947C8.82685 2.75697 9.50645 2.47572 10.3035 2.47572C11.1363 2.47572 11.8382 2.7793 12.4093 3.38644C13.0576 3.26144 13.6673 3.0293 14.2384 2.69001C14.0183 3.37453 13.596 3.9043 12.9714 4.2793C13.5246 4.21977 14.0778 4.07096 14.631 3.83287Z" fill="black"/>
</g>
<defs>
<clipPath id="clip0_1_509">
<rect width="14.85" height="16" fill="white" transform="matrix(1 0 0 -1 0.174995 16.1899)"/>
</clipPath>
</defs>
</svg>
