<svg width="14" height="17" viewBox="0 0 14 17" fill="none" xmlns="http://www.w3.org/2000/svg">
<g clip-path="url(#clip0_1_498)">
<path d="M8.61607 9.8058C8.61607 9.8058 8.72768 9.6942 8.95089 9.47098C9.17411 9.24777 9.28571 8.82068 9.28571 8.18973C9.28571 7.55878 9.0625 7.02009 8.61607 6.57366C8.16964 6.12723 7.63095 5.90402 7 5.90402C6.36905 5.90402 5.83036 6.12723 5.38393 6.57366C4.9375 7.02009 4.71429 7.55878 4.71429 8.18973C4.71429 8.82068 4.9375 9.35937 5.38393 9.8058C5.83036 10.2522 6.36905 10.4754 7 10.4754C7.63095 10.4754 8.16964 10.2522 8.61607 9.8058ZM9.49107 5.69866C9.49107 5.69866 9.6622 5.86979 10.0045 6.21205C10.3467 6.55432 10.5179 7.21354 10.5179 8.18973C10.5179 9.16592 10.1756 9.99628 9.49107 10.6808C8.80655 11.3653 7.97619 11.7076 7 11.7076C6.02381 11.7076 5.19345 11.3653 4.50893 10.6808C3.8244 9.99628 3.48214 9.16592 3.48214 8.18973C3.48214 7.21354 3.8244 6.38318 4.50893 5.69866C5.19345 5.01414 6.02381 4.67187 7 4.67187C7.97619 4.67187 8.80655 5.01414 9.49107 5.69866ZM11.2411 3.94866C11.2411 3.94866 11.2812 3.98884 11.3616 4.0692C11.442 4.14955 11.4821 4.30283 11.4821 4.52902C11.4821 4.75521 11.4018 4.94866 11.2411 5.10937C11.0804 5.27009 10.8869 5.35045 10.6607 5.35045C10.4345 5.35045 10.2411 5.27009 10.0804 5.10937C9.91964 4.94866 9.83929 4.75521 9.83929 4.52902C9.83929 4.30283 9.91964 4.10937 10.0804 3.94866C10.2411 3.78795 10.4345 3.70759 10.6607 3.70759C10.8869 3.70759 11.0804 3.78795 11.2411 3.94866ZM7.68304 2.56027C7.68304 2.56027 7.57961 2.56101 7.37277 2.5625C7.16592 2.56399 7.04167 2.56473 7 2.56473C6.95833 2.56473 6.73065 2.56324 6.31696 2.56027C5.90327 2.55729 5.58929 2.55729 5.375 2.56027C5.16071 2.56324 4.87351 2.57217 4.51339 2.58705C4.15327 2.60193 3.84673 2.6317 3.59375 2.67634C3.34077 2.72098 3.12798 2.77604 2.95536 2.84152C2.65774 2.96056 2.39583 3.13318 2.16964 3.35937C1.94345 3.58556 1.77083 3.84747 1.65179 4.14509C1.58631 4.31771 1.53125 4.53051 1.48661 4.78348C1.44196 5.03646 1.4122 5.34301 1.39732 5.70312C1.38244 6.06324 1.37351 6.35045 1.37054 6.56473C1.36756 6.77902 1.36756 7.09301 1.37054 7.5067C1.37351 7.92039 1.375 8.14807 1.375 8.18973C1.375 8.2314 1.37351 8.45908 1.37054 8.87277C1.36756 9.28646 1.36756 9.60045 1.37054 9.81473C1.37351 10.029 1.38244 10.3162 1.39732 10.6763C1.4122 11.0365 1.44196 11.343 1.48661 11.596C1.53125 11.849 1.58631 12.0618 1.65179 12.2344C1.77083 12.532 1.94345 12.7939 2.16964 13.0201C2.39583 13.2463 2.65774 13.4189 2.95536 13.5379C3.12798 13.6034 3.34077 13.6585 3.59375 13.7031C3.84673 13.7478 4.15327 13.7775 4.51339 13.7924C4.87351 13.8073 5.16071 13.8162 5.375 13.8192C5.58929 13.8222 5.90327 13.8222 6.31696 13.8192C6.73065 13.8162 6.95833 13.8147 7 13.8147C7.04167 13.8147 7.26935 13.8162 7.68304 13.8192C8.09673 13.8222 8.41071 13.8222 8.625 13.8192C8.83929 13.8162 9.12649 13.8073 9.48661 13.7924C9.84673 13.7775 10.1533 13.7478 10.4062 13.7031C10.6592 13.6585 10.872 13.6034 11.0446 13.5379C11.3423 13.4189 11.6042 13.2463 11.8304 13.0201C12.0565 12.7939 12.2292 12.532 12.3482 12.2344C12.4137 12.0618 12.4688 11.849 12.5134 11.596C12.558 11.343 12.5878 11.0365 12.6027 10.6763C12.6176 10.3162 12.6265 10.029 12.6295 9.81473C12.6324 9.60045 12.6324 9.28646 12.6295 8.87277C12.6265 8.45908 12.625 8.2314 12.625 8.18973C12.625 8.14807 12.6265 7.92039 12.6295 7.5067C12.6324 7.09301 12.6324 6.77902 12.6295 6.56473C12.6265 6.35045 12.6176 6.06324 12.6027 5.70312C12.5878 5.34301 12.558 5.03646 12.5134 4.78348C12.4688 4.53051 12.4137 4.31771 12.3482 4.14509C12.2292 3.84747 12.0565 3.58556 11.8304 3.35937C11.6042 3.13318 11.3423 2.96056 11.0446 2.84152C10.872 2.77604 10.6592 2.72098 10.4062 2.67634C10.1533 2.6317 9.84673 2.60193 9.48661 2.58705C9.12649 2.57217 8.83929 2.56324 8.625 2.56027C8.41071 2.55729 8.09673 2.55729 7.68304 2.56027ZM13.8125 5.35937C13.8423 5.88318 13.8571 6.82664 13.8571 8.18973C13.8571 9.55283 13.8423 10.4963 13.8125 11.0201C13.753 12.2582 13.3839 13.2165 12.7054 13.8951C12.0268 14.5737 11.0685 14.9427 9.83036 15.0022C9.30655 15.032 8.3631 15.0469 7 15.0469C5.6369 15.0469 4.69345 15.032 4.16964 15.0022C2.93155 14.9427 1.97321 14.5737 1.29464 13.8951C0.616071 13.2165 0.247023 12.2582 0.187499 11.0201C0.157738 10.4963 0.142857 9.55283 0.142857 8.18973C0.142857 6.82664 0.157738 5.88318 0.187499 5.35937C0.247023 4.12128 0.616071 3.16295 1.29464 2.48437C1.97321 1.8058 2.93155 1.43676 4.16964 1.37723C4.69345 1.34747 5.6369 1.33259 7 1.33259C8.3631 1.33259 9.30655 1.34747 9.83036 1.37723C11.0685 1.43676 12.0268 1.8058 12.7054 2.48437C13.3839 3.16295 13.753 4.12128 13.8125 5.35937Z" fill="black"/>
</g>
<defs>
<clipPath id="clip0_1_498">
<rect width="13.72" height="16" fill="white" transform="matrix(1 0 0 -1 0.139999 16.1899)"/>
</clipPath>
</defs>
</svg>
