<svg width="15" height="17" viewBox="0 0 15 17" fill="none" xmlns="http://www.w3.org/2000/svg">
<g clip-path="url(#clip0_1_182)">
<path d="M9.31611 10.1657C9.31611 10.1657 9.42772 10.0541 9.65093 9.83085C9.87415 9.60763 9.98575 9.18055 9.98575 8.5496C9.98575 7.91864 9.76254 7.37995 9.31611 6.93352C8.86968 6.4871 8.33099 6.26388 7.70004 6.26388C7.06909 6.26388 6.5304 6.4871 6.08397 6.93352C5.63754 7.37995 5.41432 7.91864 5.41432 8.5496C5.41432 9.18055 5.63754 9.71924 6.08397 10.1657C6.5304 10.6121 7.06909 10.8353 7.70004 10.8353C8.33099 10.8353 8.86968 10.6121 9.31611 10.1657ZM10.1911 6.05852C10.1911 6.05852 10.3622 6.22965 10.7045 6.57192C11.0468 6.91418 11.2179 7.5734 11.2179 8.5496C11.2179 9.52579 10.8756 10.3561 10.1911 11.0407C9.50659 11.7252 8.67623 12.0675 7.70004 12.0675C6.72385 12.0675 5.89349 11.7252 5.20897 11.0407C4.52444 10.3561 4.18218 9.52579 4.18218 8.5496C4.18218 7.5734 4.52444 6.74305 5.20897 6.05852C5.89349 5.374 6.72385 5.03174 7.70004 5.03174C8.67623 5.03174 9.50659 5.374 10.1911 6.05852ZM11.9411 4.30852C11.9411 4.30852 11.9813 4.3487 12.0616 4.42906C12.142 4.50942 12.1822 4.66269 12.1822 4.88888C12.1822 5.11507 12.1018 5.30852 11.9411 5.46924C11.7804 5.62995 11.5869 5.71031 11.3608 5.71031C11.1346 5.71031 10.9411 5.62995 10.7804 5.46924C10.6197 5.30852 10.5393 5.11507 10.5393 4.88888C10.5393 4.66269 10.6197 4.46924 10.7804 4.30852C10.9411 4.14781 11.1346 4.06745 11.3608 4.06745C11.5869 4.06745 11.7804 4.14781 11.9411 4.30852ZM8.38307 2.92013C8.38307 2.92013 8.27965 2.92087 8.07281 2.92236C7.86596 2.92385 7.74171 2.92459 7.70004 2.92459C7.65837 2.92459 7.43069 2.92311 7.017 2.92013C6.60331 2.91715 6.28932 2.91715 6.07504 2.92013C5.86075 2.92311 5.57355 2.93204 5.21343 2.94692C4.85331 2.9618 4.54676 2.99156 4.29379 3.0362C4.04081 3.08084 3.82801 3.1359 3.6554 3.20138C3.35778 3.32043 3.09587 3.49305 2.86968 3.71924C2.64349 3.94543 2.47087 4.20733 2.35182 4.50495C2.28635 4.67757 2.23129 4.89037 2.18665 5.14334C2.142 5.39632 2.11224 5.70287 2.09736 6.06299C2.08248 6.42311 2.07355 6.71031 2.07057 6.9246C2.0676 7.13888 2.0676 7.45287 2.07057 7.86656C2.07355 8.28025 2.07504 8.50793 2.07504 8.5496C2.07504 8.59126 2.07355 8.81894 2.07057 9.23263C2.0676 9.64632 2.0676 9.96031 2.07057 10.1746C2.07355 10.3889 2.08248 10.6761 2.09736 11.0362C2.11224 11.3963 2.142 11.7029 2.18665 11.9558C2.23129 12.2088 2.28635 12.4216 2.35182 12.5942C2.47087 12.8919 2.64349 13.1538 2.86968 13.38C3.09587 13.6061 3.35778 13.7788 3.6554 13.8978C3.82801 13.9633 4.04081 14.0183 4.29379 14.063C4.54676 14.1076 4.85331 14.1374 5.21343 14.1523C5.57355 14.1672 5.86075 14.1761 6.07504 14.1791C6.28932 14.182 6.60331 14.182 7.017 14.1791C7.43069 14.1761 7.65837 14.1746 7.70004 14.1746C7.74171 14.1746 7.96938 14.1761 8.38307 14.1791C8.79676 14.182 9.11075 14.182 9.32504 14.1791C9.53932 14.1761 9.82653 14.1672 10.1866 14.1523C10.5468 14.1374 10.8533 14.1076 11.1063 14.063C11.3593 14.0183 11.5721 13.9633 11.7447 13.8978C12.0423 13.7788 12.3042 13.6061 12.5304 13.38C12.7566 13.1538 12.9292 12.8919 13.0483 12.5942C13.1137 12.4216 13.1688 12.2088 13.2134 11.9558C13.2581 11.7029 13.2878 11.3963 13.3027 11.0362C13.3176 10.6761 13.3265 10.3889 13.3295 10.1746C13.3325 9.96031 13.3325 9.64632 13.3295 9.23263C13.3265 8.81894 13.325 8.59126 13.325 8.5496C13.325 8.50793 13.3265 8.28025 13.3295 7.86656C13.3325 7.45287 13.3325 7.13888 13.3295 6.9246C13.3265 6.71031 13.3176 6.42311 13.3027 6.06299C13.2878 5.70287 13.2581 5.39632 13.2134 5.14334C13.1688 4.89037 13.1137 4.67757 13.0483 4.50495C12.9292 4.20733 12.7566 3.94543 12.5304 3.71924C12.3042 3.49305 12.0423 3.32043 11.7447 3.20138C11.5721 3.1359 11.3593 3.08084 11.1063 3.0362C10.8533 2.99156 10.5468 2.9618 10.1866 2.94692C9.82653 2.93204 9.53932 2.92311 9.32504 2.92013C9.11075 2.91715 8.79676 2.91715 8.38307 2.92013ZM14.5125 5.71924C14.5423 6.24305 14.5572 7.1865 14.5572 8.5496C14.5572 9.91269 14.5423 10.8561 14.5125 11.38C14.453 12.618 14.084 13.5764 13.4054 14.255C12.7268 14.9335 11.7685 15.3026 10.5304 15.3621C10.0066 15.3919 9.06313 15.4067 7.70004 15.4067C6.33694 15.4067 5.39349 15.3919 4.86968 15.3621C3.63159 15.3026 2.67325 14.9335 1.99468 14.255C1.31611 13.5764 0.947062 12.618 0.887538 11.38C0.857776 10.8561 0.842896 9.91269 0.842896 8.5496C0.842896 7.1865 0.857776 6.24305 0.887538 5.71924C0.947062 4.48114 1.31611 3.52281 1.99468 2.84424C2.67325 2.16567 3.63159 1.79662 4.86968 1.73709C5.39349 1.70733 6.33694 1.69245 7.70004 1.69245C9.06313 1.69245 10.0066 1.70733 10.5304 1.73709C11.7685 1.79662 12.7268 2.16567 13.4054 2.84424C14.084 3.52281 14.453 4.48114 14.5125 5.71924Z" fill="white"/>
</g>
<defs>
<clipPath id="clip0_1_182">
<rect width="13.72" height="16" fill="white" transform="matrix(1 0 0 -1 0.840027 16.5498)"/>
</clipPath>
</defs>
</svg>
