<svg width="16" height="17" viewBox="0 0 16 17" fill="none" xmlns="http://www.w3.org/2000/svg">
<g clip-path="url(#clip0_1_192)">
<path d="M15.3257 4.19273C14.9269 4.77606 14.4447 5.27309 13.8793 5.6838C13.8852 5.76714 13.8882 5.89214 13.8882 6.0588C13.8882 6.83261 13.7751 7.60493 13.5489 8.37577C13.3227 9.1466 12.979 9.88618 12.5177 10.5945C12.0564 11.3029 11.5072 11.9293 10.8703 12.474C10.2334 13.0186 9.46558 13.4531 8.56677 13.7776C7.66796 14.102 6.70665 14.2642 5.68284 14.2642C4.06975 14.2642 2.59356 13.8326 1.25427 12.9695C1.46261 12.9933 1.69475 13.0052 1.9507 13.0052C3.28999 13.0052 4.48344 12.5945 5.53106 11.7731C4.90606 11.7612 4.34653 11.5692 3.85249 11.1972C3.35844 10.8252 3.01915 10.3505 2.83463 9.77309C3.03106 9.80285 3.21261 9.81773 3.37927 9.81773C3.63522 9.81773 3.8882 9.78499 4.1382 9.71952C3.47153 9.58261 2.91945 9.25077 2.48195 8.72398C2.04445 8.1972 1.8257 7.58559 1.8257 6.88916V6.85345C2.23046 7.07964 2.66499 7.20166 3.12927 7.21952C2.73642 6.95761 2.42392 6.61535 2.19177 6.19273C1.95963 5.77011 1.84356 5.31178 1.84356 4.81773C1.84356 4.29392 1.97451 3.8088 2.23642 3.36237C2.95665 4.24928 3.83314 4.9591 4.86588 5.49184C5.89862 6.02458 7.00427 6.32071 8.18284 6.38023C8.13523 6.15404 8.11142 5.9338 8.11142 5.71952C8.11142 4.9219 8.39267 4.24184 8.95517 3.67934C9.51767 3.11684 10.1977 2.83559 10.9953 2.83559C11.8287 2.83559 12.5311 3.13916 13.1025 3.7463C13.7513 3.6213 14.3614 3.38916 14.9328 3.04987C14.7126 3.7344 14.29 4.26416 13.665 4.63916C14.2186 4.57964 14.7721 4.43083 15.3257 4.19273Z" fill="white"/>
</g>
<defs>
<clipPath id="clip0_1_192">
<rect width="14.86" height="16" fill="white" transform="matrix(1 0 0 -1 0.859985 16.5498)"/>
</clipPath>
</defs>
</svg>
