<svg width="21" height="22" viewBox="0 0 21 22" fill="none" xmlns="http://www.w3.org/2000/svg">
<g clip-path="url(#clip0_1_493)">
<path d="M20.6719 0.318846C20.9297 0.506346 21.0352 0.756346 20.9883 1.06885L17.9883 19.0688C17.9492 19.2954 17.8242 19.4712 17.6133 19.5962C17.5039 19.6587 17.3828 19.6899 17.25 19.6899C17.1641 19.6899 17.0703 19.6704 16.9687 19.6313L10.793 17.1118L7.30078 20.9438C7.16015 21.1079 6.97656 21.1899 6.75 21.1899C6.64062 21.1899 6.55078 21.1743 6.48047 21.1431C6.33203 21.0884 6.21484 20.9966 6.1289 20.8677C6.04297 20.7388 6 20.5962 6 20.4399V15.1431L0.468748 12.8813C0.179686 12.772 0.0234359 12.5571 -1.60634e-06 12.2368C-0.0234391 11.9321 0.101561 11.7017 0.374998 11.5454L19.875 0.295408C20.1484 0.131346 20.4141 0.139158 20.6719 0.318846ZM16.6641 17.8853L19.2539 2.38135L2.44922 12.0728L6.38672 13.6782L16.5 6.18994L10.8984 15.5298L16.6641 17.8853Z" fill="white"/>
</g>
<defs>
<clipPath id="clip0_1_493">
<rect width="21" height="21" fill="white" transform="matrix(1 0 0 -1 0 21.1899)"/>
</clipPath>
</defs>
</svg>
