<svg width="13" height="17" viewBox="0 0 13 17" fill="none" xmlns="http://www.w3.org/2000/svg">
<g clip-path="url(#clip0_1_425)">
<path d="M12.5757 11.7614C12.5757 11.9222 12.546 12.132 12.4864 12.3909C12.4269 12.6498 12.3644 12.8537 12.2989 13.0025C12.1739 13.3001 11.8108 13.6156 11.2096 13.9489C10.6501 14.2525 10.0965 14.4043 9.54893 14.4043C9.38821 14.4043 9.23048 14.3939 9.07571 14.373C8.92095 14.3522 8.74982 14.315 8.56232 14.2614C8.37482 14.2079 8.23494 14.1647 8.14268 14.132C8.05042 14.0992 7.88524 14.0382 7.64714 13.9489C7.40905 13.8597 7.26321 13.8061 7.20964 13.7882C6.62631 13.5799 6.10548 13.3329 5.64714 13.0472C4.89119 12.5769 4.10548 11.9341 3.29 11.1186C2.47452 10.3031 1.83167 9.51739 1.36143 8.76144C1.07571 8.30311 0.828691 7.78227 0.620357 7.19894C0.6025 7.14537 0.548929 6.99953 0.459643 6.76144C0.370357 6.52334 0.309345 6.35817 0.276607 6.2659C0.243869 6.17364 0.200714 6.03376 0.147143 5.84626C0.0935715 5.65876 0.0563691 5.48763 0.0355358 5.33287C0.0147025 5.17811 0.00428581 5.02037 0.00428581 4.85965C0.00428581 4.31203 0.156072 3.75846 0.459643 3.19894C0.792976 2.59775 1.10845 2.23465 1.40607 2.10965C1.55488 2.04418 1.75875 1.98168 2.01768 1.92215C2.27661 1.86263 2.48643 1.83287 2.64714 1.83287C2.73048 1.83287 2.79298 1.8418 2.83464 1.85965C2.94179 1.89537 3.09952 2.12156 3.30786 2.53822C3.37333 2.65132 3.46262 2.81203 3.57571 3.02037C3.68881 3.2287 3.79298 3.41769 3.88821 3.58733C3.98345 3.75697 4.07571 3.9162 4.165 4.06501C4.18286 4.08882 4.23494 4.16322 4.32125 4.28822C4.40756 4.41322 4.47155 4.51888 4.51321 4.60519C4.55488 4.6915 4.57571 4.77632 4.57571 4.85965C4.57571 4.9787 4.49089 5.12751 4.32125 5.30608C4.15161 5.48465 3.96708 5.64834 3.76768 5.79715C3.56827 5.94596 3.38375 6.1037 3.21411 6.27037C3.04446 6.43703 2.95964 6.57394 2.95964 6.68108C2.95964 6.73465 2.97452 6.80162 3.00429 6.88198C3.03405 6.96233 3.05935 7.02334 3.08018 7.06501C3.10101 7.10668 3.14268 7.17811 3.20518 7.2793C3.26768 7.38049 3.30191 7.43703 3.30786 7.44894C3.76024 8.26442 4.2781 8.96382 4.86143 9.54715C5.44476 10.1305 6.14417 10.6483 6.95964 11.1007C6.97155 11.1067 7.0281 11.1409 7.12929 11.2034C7.23048 11.2659 7.30191 11.3076 7.34357 11.3284C7.38524 11.3492 7.44625 11.3745 7.52661 11.4043C7.60696 11.4341 7.67393 11.4489 7.7275 11.4489C7.83464 11.4489 7.97155 11.3641 8.13821 11.1945C8.30488 11.0248 8.46262 10.8403 8.61143 10.6409C8.76024 10.4415 8.92393 10.257 9.1025 10.0873C9.28107 9.91769 9.42988 9.83287 9.54893 9.83287C9.63226 9.83287 9.71708 9.8537 9.80339 9.89537C9.8897 9.93703 9.99536 10.001 10.1204 10.0873C10.2454 10.1736 10.3198 10.2257 10.3436 10.2436C10.4924 10.3329 10.6516 10.4251 10.8213 10.5204C10.9909 10.6156 11.1799 10.7198 11.3882 10.8329C11.5965 10.946 11.7573 11.0352 11.8704 11.1007C12.287 11.3091 12.5132 11.4668 12.5489 11.5739C12.5668 11.6156 12.5757 11.6781 12.5757 11.7614Z" fill="#212529"/>
</g>
<defs>
<clipPath id="clip0_1_425">
<rect width="12.58" height="16" fill="white" transform="matrix(1 0 0 -1 0 16.6899)"/>
</clipPath>
</defs>
</svg>
