<svg width="10" height="17" viewBox="0 0 10 17" fill="none" xmlns="http://www.w3.org/2000/svg">
<g clip-path="url(#clip0_1_420)">
<path d="M6.19607 7.52009C6.19607 7.52009 6.30768 7.40848 6.53089 7.18527C6.75411 6.96205 6.86571 6.53497 6.86571 5.90402C6.86571 5.27307 6.6425 4.73437 6.19607 4.28795C5.74964 3.84152 5.21095 3.6183 4.58 3.6183C3.94905 3.6183 3.41036 3.84152 2.96393 4.28795C2.5175 4.73437 2.29429 5.27307 2.29429 5.90402C2.29429 6.53497 2.5175 7.07366 2.96393 7.52009C3.41036 7.96652 3.94905 8.18973 4.58 8.18973C5.21095 8.18973 5.74964 7.96652 6.19607 7.52009ZM9.15143 5.90402C9.15143 6.55283 9.05321 7.08557 8.85679 7.50223L5.60679 14.4129C5.51155 14.6094 5.37018 14.7641 5.18268 14.8772C4.99518 14.9903 4.79429 15.0469 4.58 15.0469C4.36571 15.0469 4.16482 14.9903 3.97732 14.8772C3.78982 14.7641 3.65143 14.6094 3.56214 14.4129L0.303214 7.50223C0.106786 7.08557 0.00857162 6.55283 0.00857162 5.90402C0.00857162 4.64211 0.455 3.56473 1.34786 2.67187C2.24071 1.77902 3.3181 1.33259 4.58 1.33259C5.84191 1.33259 6.91929 1.77902 7.81214 2.67187C8.705 3.56473 9.15143 4.64211 9.15143 5.90402Z" fill="#212529"/>
</g>
<defs>
<clipPath id="clip0_1_420">
<rect width="9.16" height="16" fill="white" transform="matrix(1 0 0 -1 0 16.1899)"/>
</clipPath>
</defs>
</svg>
